<svg width="276" height="279" viewBox="0 0 276 279" fill="none" xmlns="http://www.w3.org/2000/svg">
<g opacity="0.7">
<g opacity="0.100006">
<mask id="mask0_59_2437" style="mask-type:luminance" maskUnits="userSpaceOnUse" x="0" y="0" width="183" height="185">
<path d="M0 184.313H182.571V0.000213623H0V184.313Z" fill="white"/>
</mask>
<g mask="url(#mask0_59_2437)">
<path d="M14.9733 184.31C6.76423 184.31 0.00341797 177.578 0.00341797 169.218V108.837C0.00341797 100.513 6.76423 93.7454 14.9733 93.7454H92.8481V15.0963C92.8481 6.77255 99.5731 0.00456238 107.782 0.00456238H167.597C175.871 0.00456238 182.567 6.77255 182.567 15.0963V81.1558C172.135 87.171 163.216 95.8963 157.165 106.464C152.541 114.415 149.666 123.112 146.863 131.5C144.146 139.609 141.615 147.273 137.693 154.227C128.344 170.717 110.872 182.159 92.2889 184.31H14.9733Z" fill="white"/>
</g>
</g>
<g opacity="0.100006">
<mask id="mask1_59_2437" style="mask-type:luminance" maskUnits="userSpaceOnUse" x="92" y="93" width="184" height="186">
<path d="M92.8442 278.146H275.415V93.7473H92.8442V278.146Z" fill="white"/>
</mask>
<g mask="url(#mask1_59_2437)">
<path d="M275.413 169.22C275.413 177.573 268.681 184.312 260.414 184.312H182.568V262.968C182.568 271.35 175.872 278.146 167.598 278.146H107.783C99.5742 278.146 92.842 271.35 92.842 262.968V195.066C115.003 192.636 135.837 179.1 146.886 159.491C151.302 151.634 154.141 143.159 156.923 134.957C159.669 126.67 162.228 118.905 166.308 111.829C170.437 104.717 176.123 98.5509 182.726 93.7473H260.414C268.681 93.7473 275.413 100.515 275.413 108.832V169.22Z" fill="white"/>
</g>
</g>
</g>
</svg>
